<?xml version="1.0" encoding="utf-8"?>
<!-- Generator: Adobe Illustrator 17.0.0, SVG Export Plug-In . SVG Version: 6.00 Build 0)  -->
<!DOCTYPE svg PUBLIC "-//W3C//DTD SVG 1.1//EN" "http://www.w3.org/Graphics/SVG/1.1/DTD/svg11.dtd">
<svg version="1.1" id="arrow-up" xmlns="http://www.w3.org/2000/svg" xmlns:xlink="http://www.w3.org/1999/xlink" x="0px" y="0px"
	 height="51.357px" width="21.757px" viewBox="0 0 90.69 209.618" enable-background="new 0 0 90.69 209.618" xml:space="preserve">
<path id="arrow-up" fill="#eab9c7" d="M0.893,189.719c0,10.999,8.91,19.899,19.899,19.899s19.899-8.9,19.899-19.899V73.784l15.293,17.024
	c3.935,4.372,9.366,6.607,14.817,6.607c4.732,0,9.483-1.691,13.292-5.091c8.171-7.345,8.842-19.938,1.506-28.099L39.215,12.591
	C36.296,5.23,29.191,0,20.792,0C15.344,0,10.42,2.207,6.826,5.754C6.727,5.841,6.598,5.859,6.5,5.946
	c-5.95,5.349-7.805,13.461-5.606,20.636V189.719z"/>
</svg>
