<?xml version="1.0" encoding="utf-8"?>
<!-- Generator: Adobe Illustrator 17.0.0, SVG Export Plug-In . SVG Version: 6.00 Build 0)  -->
<!DOCTYPE svg PUBLIC "-//W3C//DTD SVG 1.1//EN" "http://www.w3.org/Graphics/SVG/1.1/DTD/svg11.dtd">
<svg version="1.1" id="arrow-prev" xmlns="http://www.w3.org/2000/svg" xmlns:xlink="http://www.w3.org/1999/xlink" x="0px" y="0px"
	 width="51.357px" height="21.757px" viewBox="0 0 51.357 21.757" enable-background="new 0 0 51.357 21.757" xml:space="preserve">
<path id="arrow-prev" fill="#eab9c7" d="M46.482,0H4.875C4.801,0,4.74,0.039,4.667,0.042C4.322,0.057,4,0.157,3.664,0.244
	C3.377,0.32,3.087,0.362,2.824,0.486C2.563,0.608,2.346,0.801,2.107,0.969C1.824,1.171,1.539,1.353,1.305,1.609
	c-0.05,0.054-0.12,0.076-0.168,0.134C0.988,1.922,0.937,2.14,0.817,2.333c-0.182,0.289-0.365,0.564-0.484,0.89
	C0.215,3.55,0.179,3.879,0.133,4.218C0.101,4.442,0,4.642,0,4.875c0,0.074,0.039,0.136,0.042,0.209
	C0.057,5.43,0.157,5.752,0.245,6.088C0.32,6.373,0.363,6.663,0.486,6.926c0.121,0.26,0.313,0.475,0.481,0.714
	C1.17,7.925,1.355,8.212,1.614,8.448c0.053,0.049,0.075,0.117,0.131,0.164l14.33,12.007c0.912,0.766,2.023,1.138,3.128,1.138
	c1.393,0,2.776-0.595,3.74-1.742c1.728-2.066,1.457-5.142-0.607-6.87L18.284,9.75h28.198c2.692,0,4.875-2.18,4.875-4.875
	S49.174,0,46.482,0z"/>
</svg>
