<?xml version="1.0" encoding="utf-8"?>
<!-- Generator: Adobe Illustrator 17.0.0, SVG Export Plug-In . SVG Version: 6.00 Build 0)  -->
<!DOCTYPE svg PUBLIC "-//W3C//DTD SVG 1.1//EN" "http://www.w3.org/Graphics/SVG/1.1/DTD/svg11.dtd">
<svg version="1.1" id="arrow-next" xmlns="http://www.w3.org/2000/svg" xmlns:xlink="http://www.w3.org/1999/xlink" x="0px" y="0px"
	 width="51.357px" height="21.757px" viewBox="0 0 199.829 84.802" enable-background="new 0 0 199.829 84.802"
	 xml:space="preserve">
<path id="arrow-next" fill="#eab9c7" d="M199.994,64.986c-0.058-1.348-0.448-2.601-0.789-3.908c-0.293-1.114-0.46-2.245-0.942-3.269
	c-0.471-1.011-1.219-1.851-1.872-2.777c-0.792-1.117-1.513-2.236-2.522-3.155c-0.208-0.19-0.293-0.456-0.511-0.639l-55.85-46.795
	c-8.043-6.754-20.039-5.678-26.765,2.356c-6.735,8.053-5.678,20.039,2.366,26.774l15.789,13.229H19c-10.493,0-19,8.498-19,19
	s8.507,19,19,19h162.159c2.733,0,5.3-0.624,7.648-1.663c0.582-0.256,1.03-0.754,1.589-1.07c1.744-0.996,3.367-2.111,4.708-3.586
	c0.182-0.199,0.445-0.263,0.62-0.472c0.586-0.699,0.784-1.553,1.252-2.305c0.709-1.126,1.419-2.198,1.882-3.466
	c0.462-1.273,0.603-2.555,0.783-3.877c0.123-0.874,0.517-1.651,0.517-2.561C200.159,65.512,200.007,65.272,199.994,64.986z"/>
</svg>
